<svg width="22" height="22" viewBox="0 0 22 22" fill="none" xmlns="http://www.w3.org/2000/svg">
<path fill-rule="evenodd" clip-rule="evenodd" d="M22 11C22 17.0752 17.0752 22 11 22C4.92485 22 0 17.0752 0 11C0 4.92485 4.92485 0 11 0C17.0752 0 22 4.92485 22 11ZM9.7778 7.33335C9.7778 6.92965 9.92415 6.70165 10.1019 6.5535C10.3077 6.38205 10.6289 6.2639 11 6.2639C11.3711 6.2639 11.6923 6.38205 11.8981 6.5535C12.0758 6.70165 12.2222 6.92965 12.2222 7.33335C12.2222 7.7306 12.1264 7.94725 12.0456 8.06855C11.9596 8.19755 11.8362 8.29875 11.6756 8.37905C11.5103 8.4617 11.3301 8.50915 11.181 8.534C11.1383 8.5411 11.0762 8.54745 11.033 8.5514L10.9977 8.55555H11C10.6805 8.5589 10.3619 8.68735 10.1357 8.91355C9.90655 9.14275 9.7778 9.4536 9.7778 9.7778V12.2222H12.2222V10.789C12.3965 10.7321 12.5813 10.6592 12.7688 10.5654C13.2193 10.3402 13.7071 9.98305 14.0794 9.4245C14.4569 8.8583 14.6666 8.1583 14.6666 7.33335C14.6666 6.20925 14.202 5.29145 13.463 4.67565C12.7521 4.08325 11.8511 3.81945 11 3.81945C10.1489 3.81944 9.2479 4.08325 8.537 4.67565C7.79805 5.2914 7.33335 6.20925 7.33335 7.33335H9.7778ZM11 14.0555C9.9875 14.0555 9.16665 14.8764 9.16665 15.8889C9.16665 16.9014 9.9875 17.7222 11 17.7222C12.0125 17.7222 12.8334 16.9014 12.8334 15.8889C12.8334 14.8764 12.0125 14.0555 11 14.0555Z" fill="#AEAEAE"/>
</svg>
